<?xml version="1.0" encoding="utf-8"?>
<!-- Generator: Adobe Illustrator 16.0.0, SVG Export Plug-In . SVG Version: 6.00 Build 0)  -->
<!DOCTYPE svg PUBLIC "-//W3C//DTD SVG 1.1//EN" "http://www.w3.org/Graphics/SVG/1.1/DTD/svg11.dtd">
<svg version="1.1" id="Layer_1" xmlns="http://www.w3.org/2000/svg" xmlns:xlink="http://www.w3.org/1999/xlink" x="0px" y="0px"
	 width="26px" height="52px" viewBox="0 0 26 52" enable-background="new 0 0 26 52" xml:space="preserve">
<g>
	<g>
		<path fill-rule="evenodd" clip-rule="evenodd" fill="#111111" d="M0,16h6v-6H0V16z M0,26h6v-6H0V26z M10,26h6v-6h-6V26z M20,10v6
			h6v-6H20z M20,26h6v-6h-6V26z M10,6h6V0h-6V6z M10,16h6v-6h-6V16z M0,6h6V0H0V6z"/>
	</g>
</g>
<g>
	<g>
		<path fill-rule="evenodd" clip-rule="evenodd" fill="#CCCCCC" d="M0,42h6v-6H0V42z M0,52h6v-6H0V52z M10,52h6v-6h-6V52z M20,36v6
			h6v-6H20z M20,52h6v-6h-6V52z M10,32h6v-6h-6V32z M10,42h6v-6h-6V42z M0,32h6v-6H0V32z"/>
	</g>
</g>
</svg>
